<svg xmlns="http://www.w3.org/2000/svg" viewBox="0 0 1200 720" role="img" aria-labelledby="title desc">
  <title id="title">Interactive Budgeting Tool thumbnail</title>
  <desc id="desc">Finance dashboard illustration with spending cards, savings goal, and category chart.</desc>
  <defs><linearGradient id="bg" x1="0" x2="1" y1="0" y2="1"><stop stop-color="#171322"/><stop offset="1" stop-color="#7c2d12"/></linearGradient><linearGradient id="gold" x1="0" x2="1"><stop stop-color="#fbbf24"/><stop offset="1" stop-color="#38bdf8"/></linearGradient></defs>
  <rect width="1200" height="720" fill="url(#bg)"/>
  <rect x="92" y="86" width="1016" height="548" rx="42" fill="#0f172a" opacity=".9" stroke="#fbbf24" stroke-opacity=".28"/>
  <text x="142" y="166" fill="#fff7ed" font-family="Arial, sans-serif" font-size="42" font-weight="800">Budget Command Center</text>
  <rect x="142" y="220" width="276" height="148" rx="24" fill="#1f2937"/><text x="174" y="278" fill="#fbbf24" font-family="Arial" font-size="26" font-weight="700">Income</text><text x="174" y="334" fill="#f8fafc" font-family="Arial" font-size="54" font-weight="800">₹52K</text>
  <rect x="462" y="220" width="276" height="148" rx="24" fill="#1f2937"/><text x="494" y="278" fill="#38bdf8" font-family="Arial" font-size="26" font-weight="700">Savings</text><text x="494" y="334" fill="#f8fafc" font-family="Arial" font-size="54" font-weight="800">34%</text>
  <rect x="782" y="220" width="276" height="148" rx="24" fill="#1f2937"/><text x="814" y="278" fill="#34d399" font-family="Arial" font-size="26" font-weight="700">Goals</text><text x="814" y="334" fill="#f8fafc" font-family="Arial" font-size="54" font-weight="800">4</text>
  <path d="M166 520c82-96 153-62 221-118 78-65 160-36 240-92 91-64 183-30 302-104" fill="none" stroke="url(#gold)" stroke-width="22" stroke-linecap="round"/>
  <circle cx="166" cy="520" r="18" fill="#fbbf24"/><circle cx="929" cy="206" r="18" fill="#38bdf8"/>
</svg>
