<svg xmlns="http://www.w3.org/2000/svg" viewBox="0 0 1200 720" role="img" aria-labelledby="title desc">
  <title id="title">Financial Calculator thumbnail</title>
  <desc id="desc">Financial calculator dashboard showing EMI, FD, SIP, and growth chart.</desc>
  <rect width="1200" height="720" fill="#0b1729"/>
  <rect x="110" y="84" width="980" height="552" rx="40" fill="#f8fafc"/>
  <text x="168" y="160" fill="#111827" font-family="Arial" font-size="46" font-weight="800">Finance Calculator</text>
  <g fill="#e2e8f0"><rect x="168" y="218" width="190" height="96" rx="22"/><rect x="392" y="218" width="190" height="96" rx="22"/><rect x="616" y="218" width="190" height="96" rx="22"/></g>
  <g fill="#0f172a" font-family="Arial" font-size="38" font-weight="800"><text x="226" y="280">FD</text><text x="448" y="280">EMI</text><text x="668" y="280">SIP</text></g>
  <path d="M190 540c80-118 134-48 210-100 74-51 128 0 194-58 82-73 158-36 302-112" fill="none" stroke="#16a34a" stroke-width="20" stroke-linecap="round"/>
  <rect x="850" y="218" width="160" height="320" rx="30" fill="#111827"/><g fill="#38bdf8"><circle cx="894" cy="278" r="18"/><circle cx="966" cy="278" r="18"/><circle cx="894" cy="350" r="18"/><circle cx="966" cy="350" r="18"/><circle cx="894" cy="422" r="18"/><circle cx="966" cy="422" r="18"/></g>
</svg>
