<svg xmlns="http://www.w3.org/2000/svg" viewBox="0 0 1200 720" role="img" aria-labelledby="title desc">
  <title id="title">Image Generator UI thumbnail</title>
  <desc id="desc">Prompt based image generator interface with colorful generated canvas preview.</desc>
  <defs><linearGradient id="paint" x1="0" x2="1" y1="0" y2="1"><stop stop-color="#f472b6"/><stop offset=".5" stop-color="#38bdf8"/><stop offset="1" stop-color="#34d399"/></linearGradient></defs>
  <rect width="1200" height="720" fill="#111827"/>
  <rect x="98" y="88" width="1004" height="544" rx="42" fill="#0b1120" stroke="#f472b6" stroke-opacity=".24"/>
  <rect x="154" y="154" width="418" height="72" rx="36" fill="#1f2937"/><text x="190" y="201" fill="#f8fafc" font-family="Arial" font-size="30" font-weight="800">Prompt: neon city</text>
  <rect x="154" y="272" width="418" height="238" rx="30" fill="#162033"/><rect x="198" y="324" width="330" height="24" rx="12" fill="#475569"/><rect x="198" y="382" width="250" height="24" rx="12" fill="#475569"/><rect x="198" y="442" width="150" height="52" rx="26" fill="#38bdf8"/>
  <rect x="650" y="154" width="370" height="356" rx="34" fill="url(#paint)"/><circle cx="750" cy="252" r="74" fill="#fff" opacity=".35"/><path d="M676 472c82-130 146-108 214-188 62-72 92-50 130-112v300z" fill="#07111f" opacity=".42"/>
</svg>
