<svg xmlns="http://www.w3.org/2000/svg" viewBox="0 0 1200 720" role="img" aria-labelledby="title desc">
  <title id="title">Developer Portfolio thumbnail</title>
  <desc id="desc">Responsive portfolio website mockup with profile card, project grid, and navigation.</desc>
  <defs><linearGradient id="bg" x1="0" x2="1" y1="0" y2="1"><stop stop-color="#052e2b"/><stop offset="1" stop-color="#111827"/></linearGradient></defs>
  <rect width="1200" height="720" fill="url(#bg)"/>
  <rect x="116" y="88" width="968" height="544" rx="38" fill="#07111f" stroke="#34d399" stroke-opacity=".26"/>
  <rect x="168" y="142" width="864" height="58" rx="29" fill="#102033"/>
  <circle cx="214" cy="171" r="19" fill="#38bdf8"/><rect x="268" y="158" width="190" height="24" rx="12" fill="#e2e8f0" opacity=".82"/>
  <rect x="172" y="254" width="402" height="274" rx="30" fill="#0f1b2d"/>
  <text x="214" y="334" fill="#f8fafc" font-family="Arial" font-size="52" font-weight="800">Abhiram</text>
  <text x="216" y="386" fill="#38bdf8" font-family="Arial" font-size="28" font-weight="700">AI / ML · Full Stack</text>
  <rect x="216" y="432" width="170" height="46" rx="23" fill="#38bdf8"/><rect x="410" y="432" width="110" height="46" rx="23" fill="#1f2937"/>
  <g fill="#12304a"><rect x="628" y="254" width="166" height="122" rx="24"/><rect x="824" y="254" width="166" height="122" rx="24"/><rect x="628" y="406" width="166" height="122" rx="24"/><rect x="824" y="406" width="166" height="122" rx="24"/></g>
  <g fill="#34d399"><circle cx="711" cy="315" r="22"/><circle cx="907" cy="315" r="22"/><circle cx="711" cy="467" r="22"/><circle cx="907" cy="467" r="22"/></g>
</svg>
