<svg xmlns="http://www.w3.org/2000/svg" viewBox="0 0 1200 720" role="img" aria-labelledby="title desc">
  <title id="title">Thyroid Disease Prediction thumbnail</title>
  <desc id="desc">Medical AI dashboard illustration with thyroid scan, confidence chart, and health metrics.</desc>
  <defs>
    <linearGradient id="bg" x1="0" x2="1" y1="0" y2="1"><stop stop-color="#0b1730"/><stop offset="1" stop-color="#0f766e"/></linearGradient>
    <linearGradient id="hot" x1="0" x2="1"><stop stop-color="#38bdf8"/><stop offset="1" stop-color="#34d399"/></linearGradient>
  </defs>
  <rect width="1200" height="720" fill="url(#bg)"/>
  <circle cx="970" cy="80" r="240" fill="#38bdf8" opacity=".16"/>
  <circle cx="180" cy="610" r="260" fill="#34d399" opacity=".12"/>
  <rect x="86" y="92" width="1028" height="536" rx="38" fill="#07111f" opacity=".86" stroke="#7dd3fc" stroke-opacity=".24"/>
  <rect x="134" y="146" width="380" height="424" rx="28" fill="#0f1b2d" stroke="#ffffff" stroke-opacity=".1"/>
  <path d="M318 234c-56 0-92 47-74 105 15 48 34 85 35 139 0 30 75 30 75 0 1-54 20-91 35-139 18-58-15-105-71-105z" fill="none" stroke="url(#hot)" stroke-width="22" stroke-linecap="round"/>
  <path d="M252 334c43 16 89 16 132 0M318 236v265" stroke="#e0f2fe" stroke-opacity=".42" stroke-width="10" stroke-linecap="round"/>
  <rect x="574" y="152" width="464" height="84" rx="22" fill="#13243a"/>
  <text x="606" y="204" fill="#f8fafc" font-family="Arial, sans-serif" font-size="34" font-weight="700">AI Thyroid Risk Scan</text>
  <rect x="574" y="282" width="464" height="46" rx="23" fill="#1f334e"/>
  <rect x="574" y="282" width="392" height="46" rx="23" fill="url(#hot)"/>
  <text x="584" y="383" fill="#93c5fd" font-family="Arial, sans-serif" font-size="24" font-weight="700">Confidence</text>
  <text x="910" y="389" fill="#f8fafc" font-family="Arial, sans-serif" font-size="54" font-weight="800">90%+</text>
  <g fill="#38bdf8">
    <rect x="594" y="464" width="70" height="76" rx="12"/><rect x="698" y="422" width="70" height="118" rx="12"/>
    <rect x="802" y="484" width="70" height="56" rx="12"/><rect x="906" y="386" width="70" height="154" rx="12"/>
  </g>
</svg>
