<svg xmlns="http://www.w3.org/2000/svg" viewBox="0 0 1200 720" role="img" aria-labelledby="title desc">
  <title id="title">Xeno AI Assistant thumbnail</title>
  <desc id="desc">Chat assistant interface with animated robot mascot and speech bubbles.</desc>
  <defs><linearGradient id="bg" x1="0" x2="1" y1="0" y2="1"><stop stop-color="#111827"/><stop offset="1" stop-color="#312e81"/></linearGradient><linearGradient id="bot" x1="0" x2="1"><stop stop-color="#67e8f9"/><stop offset="1" stop-color="#a78bfa"/></linearGradient></defs>
  <rect width="1200" height="720" fill="url(#bg)"/>
  <rect x="112" y="88" width="976" height="544" rx="42" fill="#070b16" opacity=".9" stroke="#67e8f9" stroke-opacity=".28"/>
  <rect x="178" y="152" width="470" height="88" rx="28" fill="#1e293b"/><text x="212" y="207" fill="#f8fafc" font-family="Arial" font-size="34" font-weight="800">Ask Xeno anything</text>
  <rect x="178" y="288" width="360" height="72" rx="28" fill="#122033"/><rect x="326" y="402" width="420" height="76" rx="30" fill="#2563eb"/>
  <g transform="translate(790 188)"><rect x="0" y="92" width="176" height="132" rx="48" fill="url(#bot)"/><rect x="22" y="126" width="132" height="62" rx="28" fill="#06111f"/><circle cx="66" cy="157" r="16" fill="#67e8f9"/><circle cx="112" cy="157" r="16" fill="#67e8f9"/><rect x="48" y="224" width="82" height="70" rx="28" fill="#1e293b"/><path d="M88 92V46" stroke="#67e8f9" stroke-width="12" stroke-linecap="round"/><circle cx="88" cy="32" r="18" fill="#a78bfa"/></g>
  <g fill="#67e8f9" opacity=".65"><circle cx="158" cy="572" r="10"/><circle cx="190" cy="572" r="10"/><circle cx="222" cy="572" r="10"/></g>
</svg>
